<?xml version="1.0" encoding="UTF-8"?>
<svg xmlns="http://www.w3.org/2000/svg" viewBox="0 0 120 180" width="120" height="180">
  <path d="M30 14 L94 14 C102 14 108 20 108 28 L108 38 C108 46 102 52 94 52 L46 52 L42 80 C50 76 56 74 64 74 C90 74 108 92 108 122 C108 150 88 170 62 170 C38 170 20 154 18 132 C18 124 24 118 32 118 L38 118 C46 118 52 124 52 132 C52 140 56 146 62 146 C72 146 84 138 84 122 C84 106 74 96 62 96 C56 96 50 98 46 102 C42 106 38 106 32 106 L26 106 C18 106 12 100 12 92 L20 30 C22 22 28 14 30 14 Z" fill="#ffa040" fill-rule="evenodd"></path>
</svg>