<?xml version="1.0" encoding="UTF-8"?>
<svg xmlns="http://www.w3.org/2000/svg" viewBox="0 0 120 180" width="120" height="180">
  <path d="M62 12 C40 12 22 26 22 50 C22 64 30 76 42 80 C28 86 18 100 18 118 C18 148 38 170 62 170 C86 170 106 148 106 118 C106 100 96 86 82 80 C94 76 102 64 102 50 C102 26 84 12 62 12 Z M62 36 C72 36 80 42 80 52 C80 62 72 70 62 70 C52 70 44 62 44 52 C44 42 52 36 62 36 Z M62 92 C74 92 84 102 84 116 C84 130 74 142 62 142 C50 142 40 130 40 116 C40 102 50 92 62 92 Z" fill="#ff7da3" fill-rule="evenodd"></path>
</svg>