<?xml version="1.0" encoding="UTF-8"?>
<svg xmlns="http://www.w3.org/2000/svg" viewBox="0 0 120 180" width="120" height="180">
  <path d="M22 50 C22 26 38 12 62 12 C86 12 102 26 102 50 C102 64 94 74 84 80 C96 86 106 96 106 116 C106 144 88 170 62 170 C36 170 18 152 18 130 C18 122 24 116 32 116 L38 116 C46 116 52 122 52 130 C52 140 56 146 62 146 C72 146 84 138 84 122 C84 108 76 100 64 100 L58 100 C50 100 44 94 44 86 C44 78 50 72 58 72 L62 72 C72 72 80 64 80 52 C80 42 72 36 62 36 C52 36 44 42 44 52 C44 62 38 68 30 68 L24 68 C16 68 10 62 10 54 Z" fill="#c77dff" fill-rule="evenodd"></path>
</svg>