<?xml version="1.0" encoding="UTF-8"?>
<svg xmlns="http://www.w3.org/2000/svg" viewBox="0 0 120 180" width="120" height="180">
  <path d="M62 12 C36 12 18 30 16 80 L16 116 C16 144 36 170 62 170 C88 170 108 152 108 124 C108 96 90 78 64 78 C56 78 48 80 42 84 C46 50 60 36 76 36 C82 36 86 38 88 42 C92 46 96 48 100 48 L106 48 C112 48 118 42 118 36 C118 22 96 12 62 12 Z M62 100 C76 100 86 110 86 124 C86 138 76 148 62 148 C48 148 38 138 38 124 C38 110 48 100 62 100 Z" fill="#c77dff" fill-rule="evenodd"></path>
</svg>