<?xml version="1.0" encoding="UTF-8"?>
<svg xmlns="http://www.w3.org/2000/svg" viewBox="0 0 120 180" width="120" height="180">
  <path d="M62 12 C36 12 16 30 16 56 C16 84 34 102 60 102 C68 102 76 100 82 96 C78 130 64 144 48 144 C42 144 38 142 36 138 C32 134 28 132 24 132 L18 132 C12 132 6 138 6 144 C6 158 28 168 62 168 C88 168 106 150 108 100 L108 64 C108 36 88 12 62 12 Z M62 34 C76 34 86 44 86 58 C86 72 76 82 62 82 C48 82 38 72 38 58 C38 44 48 34 62 34 Z" fill="#c77dff" fill-rule="evenodd"></path>
</svg>