<?xml version="1.0" encoding="UTF-8"?>
<svg xmlns="http://www.w3.org/2000/svg" viewBox="0 0 120 180" width="120" height="180">
  <path d="M22 50 C22 26 38 12 62 12 C86 12 102 26 102 50 C102 70 92 84 70 102 L48 120 L100 120 C108 120 112 126 112 134 L112 154 C112 162 106 168 98 168 L24 168 C16 168 10 162 10 154 L10 138 C10 132 12 128 16 124 L66 80 C76 70 80 62 80 52 C80 42 72 36 62 36 C52 36 44 42 44 52 C44 62 38 68 30 68 L24 68 C16 68 10 62 10 54 Z" fill="#4a9eff" fill-rule="evenodd"></path>
</svg>