<?xml version="1.0" encoding="UTF-8"?>
<svg xmlns="http://www.w3.org/2000/svg" viewBox="0 0 600 180" width="600" height="180" style="background:#000">
  <rect width="600" height="180" fill="#000"></rect>
  <g transform="translate(0 0)"><path d="M60 12 C30 12 14 38 14 90 C14 142 30 168 60 168 C90 168 106 142 106 90 C106 38 90 12 60 12 Z M60 36 C76 36 86 52 86 90 C86 128 76 144 60 144 C44 144 34 128 34 90 C34 52 44 36 60 36 Z" fill="#ffa040" fill-rule="evenodd"></path></g>
<g transform="translate(120 0)"><path d="M62 12 C40 12 22 26 22 50 C22 64 30 76 42 80 C28 86 18 100 18 118 C18 148 38 170 62 170 C86 170 106 148 106 118 C106 100 96 86 82 80 C94 76 102 64 102 50 C102 26 84 12 62 12 Z M62 36 C72 36 80 42 80 52 C80 62 72 70 62 70 C52 70 44 62 44 52 C44 42 52 36 62 36 Z M62 92 C74 92 84 102 84 116 C84 130 74 142 62 142 C50 142 40 130 40 116 C40 102 50 92 62 92 Z" fill="#ff7da3" fill-rule="evenodd"></path></g>
<g transform="translate(240 0)"><path d="M50 56 C50 46 58 38 68 38 C78 38 86 46 86 56 L86 70 C86 80 78 88 68 88 C58 88 50 80 50 70 Z M50 110 C50 100 58 92 68 92 C78 92 86 100 86 110 L86 124 C86 134 78 142 68 142 C58 142 50 134 50 124 Z" fill="#c77dff" fill-rule="evenodd"></path></g>
<g transform="translate(360 0)"><path d="M104 110 L92 110 L92 28 C92 20 86 14 78 14 L70 14 C62 14 56 20 50 28 L8 96 C4 102 2 108 2 116 L2 124 C2 132 8 138 16 138 L72 138 L72 152 C72 162 80 168 90 168 L94 168 C104 168 112 162 112 152 L112 138 L116 138 C124 138 130 132 130 124 L130 118 C130 114 116 110 104 110 Z M28 110 L72 50 L72 110 Z" fill="#c77dff" fill-rule="evenodd"></path></g>
<g transform="translate(480 0)"><path d="M22 50 C22 26 38 12 62 12 C86 12 102 26 102 50 C102 70 92 84 70 102 L48 120 L100 120 C108 120 112 126 112 134 L112 154 C112 162 106 168 98 168 L24 168 C16 168 10 162 10 154 L10 138 C10 132 12 128 16 124 L66 80 C76 70 80 62 80 52 C80 42 72 36 62 36 C52 36 44 42 44 52 C44 62 38 68 30 68 L24 68 C16 68 10 62 10 54 Z" fill="#4a9eff" fill-rule="evenodd"></path></g>

</svg>